<svg xmlns="http://www.w3.org/2000/svg" viewBox="0 0 640 538" font-family="monospace">
<rect width="640" height="538" fill="#ffffff"/>
<text x="320" y="22" font-size="14.0" font-weight="bold" fill="#111827" text-anchor="middle">Этерия · seed 42 · другой мир</text>
<rect x="16" y="30" width="608" height="446" fill="#f8fafc" stroke="#d1d5db" stroke-width="0.6"/>
<polygon points="463.5,200.9 463.9,231.3 413.4,221.1" fill="#78716c" stroke="#ffffff" stroke-width="0.7"/>
<polygon points="463.9,231.3 463.5,200.9 486.9,238.1" fill="#78716c" stroke="#ffffff" stroke-width="0.7"/>
<polygon points="486.9,238.1 463.5,200.9 508.9,213.4" fill="#78716c" stroke="#ffffff" stroke-width="0.7"/>
<polygon points="463.5,200.9 471.5,191.0 508.9,213.4" fill="#78716c" stroke="#ffffff" stroke-width="0.7"/>
<polygon points="301.6,50.2 272.8,36.9 302.7,34.0" fill="#a21caf" stroke="#ffffff" stroke-width="0.7"/>
<polygon points="528.0,350.2 525.6,412.1 435.3,430.7" fill="#a21caf" stroke="#ffffff" stroke-width="0.7"/>
<polygon points="525.6,412.1 440.7,436.9 435.3,430.7" fill="#78716c" stroke="#ffffff" stroke-width="0.7"/>
<polygon points="526.6,221.6 528.0,350.2 516.9,257.7" fill="#78716c" stroke="#ffffff" stroke-width="0.7"/>
<polygon points="463.9,231.3 486.9,238.1 469.1,260.4" fill="#78716c" stroke="#ffffff" stroke-width="0.7"/>
<polygon points="417.9,120.8 393.9,114.9 401.7,106.8" fill="#15803d" stroke="#ffffff" stroke-width="0.7"/>
<polygon points="469.1,260.4 486.9,238.1 513.1,270.7" fill="#78716c" stroke="#ffffff" stroke-width="0.7"/>
<polygon points="486.9,238.1 516.9,257.7 513.1,270.7" fill="#78716c" stroke="#ffffff" stroke-width="0.7"/>
<polygon points="385.9,71.8 382.2,65.7 390.4,72.1" fill="#78716c" stroke="#ffffff" stroke-width="0.7"/>
<polygon points="401.7,106.8 385.9,71.8 390.4,72.1" fill="#78716c" stroke="#ffffff" stroke-width="0.7"/>
<polygon points="369.1,461.3 273.4,464.0 304.9,451.1" fill="#d9a44a" stroke="#ffffff" stroke-width="0.7"/>
<polygon points="240.6,323.5 264.0,334.7 219.3,345.8" fill="#7dd3fc" stroke="#ffffff" stroke-width="0.7"/>
<polygon points="459.8,122.0 471.5,191.0 439.6,133.0" fill="#15803d" stroke="#ffffff" stroke-width="0.7"/>
<polygon points="134.7,218.8 129.4,277.0 109.6,197.7" fill="#15803d" stroke="#ffffff" stroke-width="0.7"/>
<polygon points="129.4,277.0 127.0,283.7 109.6,197.7" fill="#d9a44a" stroke="#ffffff" stroke-width="0.7"/>
<polygon points="127.0,283.7 112.7,391.3 109.6,197.7" fill="#7dd3fc" stroke="#ffffff" stroke-width="0.7"/>
<polygon points="471.5,191.0 463.5,200.9 464.1,197.4" fill="#78716c" stroke="#ffffff" stroke-width="0.7"/>
<polygon points="459.8,122.0 439.6,133.0 424.2,111.0" fill="#15803d" stroke="#ffffff" stroke-width="0.7"/>
<polygon points="439.6,133.0 417.9,120.8 424.2,111.0" fill="#15803d" stroke="#ffffff" stroke-width="0.7"/>
<polygon points="417.9,120.8 401.7,106.8 424.2,111.0" fill="#15803d" stroke="#ffffff" stroke-width="0.7"/>
<polygon points="382.2,65.7 385.9,71.8 364.2,86.4" fill="#78716c" stroke="#ffffff" stroke-width="0.7"/>
<polygon points="385.9,71.8 401.7,106.8 364.2,86.4" fill="#78716c" stroke="#ffffff" stroke-width="0.7"/>
<polygon points="401.7,106.8 393.9,114.9 364.2,86.4" fill="#78716c" stroke="#ffffff" stroke-width="0.7"/>
<polygon points="508.9,213.4 471.5,191.0 487.7,184.5" fill="#78716c" stroke="#ffffff" stroke-width="0.7"/>
<polygon points="471.5,191.0 459.8,122.0 487.7,184.5" fill="#15803d" stroke="#ffffff" stroke-width="0.7"/>
<polygon points="273.4,464.0 223.3,436.9 277.7,428.4" fill="#1d4ed8" stroke="#ffffff" stroke-width="0.7"/>
<polygon points="223.3,436.9 248.9,404.1 277.7,428.4" fill="#1d4ed8" stroke="#ffffff" stroke-width="0.7"/>
<polygon points="301.6,50.2 302.7,34.0 324.0,56.6" fill="#78716c" stroke="#ffffff" stroke-width="0.7"/>
<polygon points="219.3,345.8 144.9,365.5 137.4,343.7" fill="#1d4ed8" stroke="#ffffff" stroke-width="0.7"/>
<polygon points="144.9,365.5 112.7,391.3 137.4,343.7" fill="#1d4ed8" stroke="#ffffff" stroke-width="0.7"/>
<polygon points="112.7,391.3 127.0,283.7 137.4,343.7" fill="#1d4ed8" stroke="#ffffff" stroke-width="0.7"/>
<polygon points="264.0,334.7 240.6,323.5 245.2,314.3" fill="#d9a44a" stroke="#ffffff" stroke-width="0.7"/>
<polygon points="435.3,430.7 440.7,436.9 403.0,452.4" fill="#78716c" stroke="#ffffff" stroke-width="0.7"/>
<polygon points="440.7,436.9 525.6,412.1 403.0,452.4" fill="#78716c" stroke="#ffffff" stroke-width="0.7"/>
<polygon points="469.1,260.4 460.0,288.1 446.7,270.6" fill="#78716c" stroke="#ffffff" stroke-width="0.7"/>
<polygon points="413.4,221.1 463.9,231.3 446.7,270.6" fill="#78716c" stroke="#ffffff" stroke-width="0.7"/>
<polygon points="463.9,231.3 469.1,260.4 446.7,270.6" fill="#78716c" stroke="#ffffff" stroke-width="0.7"/>
<polygon points="355.9,434.8 369.1,461.3 307.1,447.8" fill="#d9a44a" stroke="#ffffff" stroke-width="0.7"/>
<polygon points="369.1,461.3 304.9,451.1 307.1,447.8" fill="#d9a44a" stroke="#ffffff" stroke-width="0.7"/>
<polygon points="382.2,65.7 364.2,86.4 343.9,60.6" fill="#78716c" stroke="#ffffff" stroke-width="0.7"/>
<polygon points="364.2,86.4 344.8,86.7 343.9,60.6" fill="#78716c" stroke="#ffffff" stroke-width="0.7"/>
<polygon points="344.8,86.7 324.0,56.6 343.9,60.6" fill="#78716c" stroke="#ffffff" stroke-width="0.7"/>
<polygon points="528.0,350.2 435.3,430.7 478.1,312.7" fill="#78716c" stroke="#ffffff" stroke-width="0.7"/>
<polygon points="307.1,447.8 304.9,451.1 299.6,434.6" fill="#d9a44a" stroke="#ffffff" stroke-width="0.7"/>
<polygon points="304.9,451.1 273.4,464.0 299.6,434.6" fill="#7dd3fc" stroke="#ffffff" stroke-width="0.7"/>
<polygon points="273.4,464.0 277.7,428.4 299.6,434.6" fill="#7dd3fc" stroke="#ffffff" stroke-width="0.7"/>
<polygon points="277.7,428.4 282.9,426.9 299.6,434.6" fill="#7dd3fc" stroke="#ffffff" stroke-width="0.7"/>
<polygon points="272.8,36.9 301.6,50.2 293.0,60.6" fill="#a21caf" stroke="#ffffff" stroke-width="0.7"/>
<polygon points="301.6,50.2 324.0,56.6 293.0,60.6" fill="#78716c" stroke="#ffffff" stroke-width="0.7"/>
<polygon points="324.0,56.6 344.8,86.7 293.0,60.6" fill="#78716c" stroke="#ffffff" stroke-width="0.7"/>
<polygon points="129.4,277.0 134.7,218.8 155.1,263.2" fill="#d9a44a" stroke="#ffffff" stroke-width="0.7"/>
<polygon points="223.3,436.9 206.9,404.2 219.5,417.7" fill="#1d4ed8" stroke="#ffffff" stroke-width="0.7"/>
<polygon points="413.4,221.1 446.7,270.6 353.4,222.4" fill="#78716c" stroke="#ffffff" stroke-width="0.7"/>
<polygon points="446.7,270.6 320.6,372.8 353.4,222.4" fill="#15803d" stroke="#ffffff" stroke-width="0.7"/>
<polygon points="353.8,168.2 353.4,222.4 300.4,119.5" fill="#78716c" stroke="#ffffff" stroke-width="0.7"/>
<polygon points="293.0,60.6 344.8,86.7 300.4,119.5" fill="#78716c" stroke="#ffffff" stroke-width="0.7"/>
<polygon points="353.8,168.2 393.9,114.9 421.7,142.1" fill="#78716c" stroke="#ffffff" stroke-width="0.7"/>
<polygon points="393.9,114.9 417.9,120.8 421.7,142.1" fill="#15803d" stroke="#ffffff" stroke-width="0.7"/>
<polygon points="417.9,120.8 439.6,133.0 421.7,142.1" fill="#15803d" stroke="#ffffff" stroke-width="0.7"/>
<polygon points="464.1,197.4 463.5,200.9 422.3,183.0" fill="#78716c" stroke="#ffffff" stroke-width="0.7"/>
<polygon points="463.5,200.9 413.4,221.1 422.3,183.0" fill="#78716c" stroke="#ffffff" stroke-width="0.7"/>
<polygon points="421.7,142.1 439.6,133.0 422.3,183.0" fill="#15803d" stroke="#ffffff" stroke-width="0.7"/>
<polygon points="439.6,133.0 471.5,191.0 422.3,183.0" fill="#15803d" stroke="#ffffff" stroke-width="0.7"/>
<polygon points="471.5,191.0 464.1,197.4 422.3,183.0" fill="#78716c" stroke="#ffffff" stroke-width="0.7"/>
<polygon points="353.8,168.2 300.4,119.5 351.7,89.8" fill="#78716c" stroke="#ffffff" stroke-width="0.7"/>
<polygon points="300.4,119.5 344.8,86.7 351.7,89.8" fill="#78716c" stroke="#ffffff" stroke-width="0.7"/>
<polygon points="344.8,86.7 364.2,86.4 351.7,89.8" fill="#78716c" stroke="#ffffff" stroke-width="0.7"/>
<polygon points="364.2,86.4 393.9,114.9 351.7,89.8" fill="#78716c" stroke="#ffffff" stroke-width="0.7"/>
<polygon points="393.9,114.9 353.8,168.2 351.7,89.8" fill="#78716c" stroke="#ffffff" stroke-width="0.7"/>
<polygon points="487.7,184.5 459.8,122.0 483.9,108.0" fill="#15803d" stroke="#ffffff" stroke-width="0.7"/>
<polygon points="245.2,314.3 353.4,222.4 283.6,327.6" fill="#d9a44a" stroke="#ffffff" stroke-width="0.7"/>
<polygon points="353.4,222.4 320.6,372.8 283.6,327.6" fill="#15803d" stroke="#ffffff" stroke-width="0.7"/>
<polygon points="264.0,334.7 245.2,314.3 283.6,327.6" fill="#d9a44a" stroke="#ffffff" stroke-width="0.7"/>
<polygon points="245.2,314.3 240.6,323.5 209.3,298.7" fill="#d9a44a" stroke="#ffffff" stroke-width="0.7"/>
<polygon points="240.6,323.5 219.3,345.8 209.3,298.7" fill="#7dd3fc" stroke="#ffffff" stroke-width="0.7"/>
<polygon points="219.3,345.8 137.4,343.7 209.3,298.7" fill="#1d4ed8" stroke="#ffffff" stroke-width="0.7"/>
<polygon points="300.4,119.5 353.4,222.4 209.3,298.7" fill="#15803d" stroke="#ffffff" stroke-width="0.7"/>
<polygon points="353.4,222.4 245.2,314.3 209.3,298.7" fill="#d9a44a" stroke="#ffffff" stroke-width="0.7"/>
<polygon points="283.6,327.6 320.6,372.8 269.4,381.3" fill="#d9a44a" stroke="#ffffff" stroke-width="0.7"/>
<polygon points="320.6,372.8 282.9,426.9 269.4,381.3" fill="#d9a44a" stroke="#ffffff" stroke-width="0.7"/>
<polygon points="282.9,426.9 277.7,428.4 269.4,381.3" fill="#7dd3fc" stroke="#ffffff" stroke-width="0.7"/>
<polygon points="277.7,428.4 248.9,404.1 269.4,381.3" fill="#1d4ed8" stroke="#ffffff" stroke-width="0.7"/>
<polygon points="248.9,404.1 233.0,375.7 269.4,381.3" fill="#1d4ed8" stroke="#ffffff" stroke-width="0.7"/>
<polygon points="233.0,375.7 264.0,334.7 269.4,381.3" fill="#7dd3fc" stroke="#ffffff" stroke-width="0.7"/>
<polygon points="264.0,334.7 283.6,327.6 269.4,381.3" fill="#d9a44a" stroke="#ffffff" stroke-width="0.7"/>
<polygon points="390.4,72.1 382.2,65.7 386.5,47.3" fill="#78716c" stroke="#ffffff" stroke-width="0.7"/>
<polygon points="528.0,350.2 526.6,221.6 530.4,174.6" fill="#78716c" stroke="#ffffff" stroke-width="0.7"/>
<polygon points="526.6,221.6 508.9,213.4 530.4,174.6" fill="#78716c" stroke="#ffffff" stroke-width="0.7"/>
<polygon points="508.9,213.4 487.7,184.5 530.4,174.6" fill="#15803d" stroke="#ffffff" stroke-width="0.7"/>
<polygon points="233.0,375.7 206.9,404.2 227.0,369.2" fill="#1d4ed8" stroke="#ffffff" stroke-width="0.7"/>
<polygon points="219.3,345.8 264.0,334.7 227.0,369.2" fill="#7dd3fc" stroke="#ffffff" stroke-width="0.7"/>
<polygon points="264.0,334.7 233.0,375.7 227.0,369.2" fill="#1d4ed8" stroke="#ffffff" stroke-width="0.7"/>
<polygon points="353.8,168.2 421.7,142.1 410.2,185.6" fill="#78716c" stroke="#ffffff" stroke-width="0.7"/>
<polygon points="421.7,142.1 422.3,183.0 410.2,185.6" fill="#15803d" stroke="#ffffff" stroke-width="0.7"/>
<polygon points="491.0,106.9 483.9,108.0 449.9,43.1" fill="#15803d" stroke="#ffffff" stroke-width="0.7"/>
<polygon points="390.4,72.1 386.5,47.3 449.9,43.1" fill="#15803d" stroke="#ffffff" stroke-width="0.7"/>
<polygon points="422.3,183.0 413.4,221.1 407.6,207.0" fill="#78716c" stroke="#ffffff" stroke-width="0.7"/>
<polygon points="413.4,221.1 353.4,222.4 407.6,207.0" fill="#15803d" stroke="#ffffff" stroke-width="0.7"/>
<polygon points="129.4,277.0 155.1,263.2 142.6,288.2" fill="#d9a44a" stroke="#ffffff" stroke-width="0.7"/>
<polygon points="155.1,263.2 209.3,298.7 142.6,288.2" fill="#d9a44a" stroke="#ffffff" stroke-width="0.7"/>
<polygon points="209.3,298.7 137.4,343.7 142.6,288.2" fill="#1d4ed8" stroke="#ffffff" stroke-width="0.7"/>
<polygon points="137.4,343.7 127.0,283.7 142.6,288.2" fill="#1d4ed8" stroke="#ffffff" stroke-width="0.7"/>
<polygon points="127.0,283.7 129.4,277.0 142.6,288.2" fill="#7dd3fc" stroke="#ffffff" stroke-width="0.7"/>
<polygon points="282.9,426.9 320.6,372.8 324.2,420.6" fill="#d9a44a" stroke="#ffffff" stroke-width="0.7"/>
<polygon points="355.9,434.8 307.1,447.8 324.2,420.6" fill="#d9a44a" stroke="#ffffff" stroke-width="0.7"/>
<polygon points="307.1,447.8 299.6,434.6 324.2,420.6" fill="#d9a44a" stroke="#ffffff" stroke-width="0.7"/>
<polygon points="299.6,434.6 282.9,426.9 324.2,420.6" fill="#d9a44a" stroke="#ffffff" stroke-width="0.7"/>
<polygon points="390.4,72.1 449.9,43.1 417.1,97.4" fill="#15803d" stroke="#ffffff" stroke-width="0.7"/>
<polygon points="449.9,43.1 483.9,108.0 417.1,97.4" fill="#15803d" stroke="#ffffff" stroke-width="0.7"/>
<polygon points="483.9,108.0 459.8,122.0 417.1,97.4" fill="#15803d" stroke="#ffffff" stroke-width="0.7"/>
<polygon points="459.8,122.0 424.2,111.0 417.1,97.4" fill="#15803d" stroke="#ffffff" stroke-width="0.7"/>
<polygon points="424.2,111.0 401.7,106.8 417.1,97.4" fill="#15803d" stroke="#ffffff" stroke-width="0.7"/>
<polygon points="401.7,106.8 390.4,72.1 417.1,97.4" fill="#15803d" stroke="#ffffff" stroke-width="0.7"/>
<polygon points="528.0,350.2 478.1,312.7 519.2,322.9" fill="#78716c" stroke="#ffffff" stroke-width="0.7"/>
<polygon points="478.1,312.7 513.1,270.7 519.2,322.9" fill="#78716c" stroke="#ffffff" stroke-width="0.7"/>
<polygon points="513.1,270.7 516.9,257.7 519.2,322.9" fill="#78716c" stroke="#ffffff" stroke-width="0.7"/>
<polygon points="516.9,257.7 528.0,350.2 519.2,322.9" fill="#78716c" stroke="#ffffff" stroke-width="0.7"/>
<polygon points="227.0,369.2 206.9,404.2 164.3,399.4" fill="#1d4ed8" stroke="#ffffff" stroke-width="0.7"/>
<polygon points="206.9,404.2 223.3,436.9 164.3,399.4" fill="#1d4ed8" stroke="#ffffff" stroke-width="0.7"/>
<polygon points="223.3,436.9 112.7,391.3 164.3,399.4" fill="#1d4ed8" stroke="#ffffff" stroke-width="0.7"/>
<polygon points="112.7,391.3 144.9,365.5 164.3,399.4" fill="#1d4ed8" stroke="#ffffff" stroke-width="0.7"/>
<polygon points="144.9,365.5 219.3,345.8 164.3,399.4" fill="#1d4ed8" stroke="#ffffff" stroke-width="0.7"/>
<polygon points="219.3,345.8 227.0,369.2 164.3,399.4" fill="#1d4ed8" stroke="#ffffff" stroke-width="0.7"/>
<polygon points="355.9,434.8 324.2,420.6 359.8,398.0" fill="#15803d" stroke="#ffffff" stroke-width="0.7"/>
<polygon points="324.2,420.6 320.6,372.8 359.8,398.0" fill="#d9a44a" stroke="#ffffff" stroke-width="0.7"/>
<polygon points="320.6,372.8 446.7,270.6 359.8,398.0" fill="#15803d" stroke="#ffffff" stroke-width="0.7"/>
<polygon points="446.7,270.6 460.0,288.1 359.8,398.0" fill="#78716c" stroke="#ffffff" stroke-width="0.7"/>
<polygon points="460.0,288.1 478.1,312.7 359.8,398.0" fill="#78716c" stroke="#ffffff" stroke-width="0.7"/>
<polygon points="478.1,312.7 435.3,430.7 359.8,398.0" fill="#78716c" stroke="#ffffff" stroke-width="0.7"/>
<polygon points="435.3,430.7 403.0,452.4 359.8,398.0" fill="#78716c" stroke="#ffffff" stroke-width="0.7"/>
<polygon points="486.9,238.1 508.9,213.4 517.3,245.4" fill="#78716c" stroke="#ffffff" stroke-width="0.7"/>
<polygon points="508.9,213.4 526.6,221.6 517.3,245.4" fill="#78716c" stroke="#ffffff" stroke-width="0.7"/>
<polygon points="526.6,221.6 516.9,257.7 517.3,245.4" fill="#78716c" stroke="#ffffff" stroke-width="0.7"/>
<polygon points="516.9,257.7 486.9,238.1 517.3,245.4" fill="#78716c" stroke="#ffffff" stroke-width="0.7"/>
<polygon points="210.7,56.1 300.4,119.5 135.9,217.0" fill="#78716c" stroke="#ffffff" stroke-width="0.7"/>
<polygon points="300.4,119.5 209.3,298.7 135.9,217.0" fill="#15803d" stroke="#ffffff" stroke-width="0.7"/>
<polygon points="209.3,298.7 155.1,263.2 135.9,217.0" fill="#d9a44a" stroke="#ffffff" stroke-width="0.7"/>
<polygon points="155.1,263.2 134.7,218.8 135.9,217.0" fill="#15803d" stroke="#ffffff" stroke-width="0.7"/>
<polygon points="134.7,218.8 109.6,197.7 135.9,217.0" fill="#15803d" stroke="#ffffff" stroke-width="0.7"/>
<polygon points="109.6,197.7 210.7,56.1 135.9,217.0" fill="#78716c" stroke="#ffffff" stroke-width="0.7"/>
<polygon points="530.4,174.6 487.7,184.5 529.9,138.1" fill="#15803d" stroke="#ffffff" stroke-width="0.7"/>
<polygon points="487.7,184.5 483.9,108.0 529.9,138.1" fill="#15803d" stroke="#ffffff" stroke-width="0.7"/>
<polygon points="483.9,108.0 491.0,106.9 529.9,138.1" fill="#15803d" stroke="#ffffff" stroke-width="0.7"/>
<polygon points="491.0,106.9 449.9,43.1 529.9,138.1" fill="#15803d" stroke="#ffffff" stroke-width="0.7"/>
<polygon points="449.9,43.1 386.5,47.3 368.6,38.7" fill="#15803d" stroke="#ffffff" stroke-width="0.7"/>
<polygon points="386.5,47.3 382.2,65.7 368.6,38.7" fill="#78716c" stroke="#ffffff" stroke-width="0.7"/>
<polygon points="382.2,65.7 343.9,60.6 368.6,38.7" fill="#78716c" stroke="#ffffff" stroke-width="0.7"/>
<polygon points="343.9,60.6 324.0,56.6 368.6,38.7" fill="#78716c" stroke="#ffffff" stroke-width="0.7"/>
<polygon points="324.0,56.6 302.7,34.0 368.6,38.7" fill="#78716c" stroke="#ffffff" stroke-width="0.7"/>
<polygon points="353.8,168.2 410.2,185.6 407.2,195.9" fill="#78716c" stroke="#ffffff" stroke-width="0.7"/>
<polygon points="410.2,185.6 422.3,183.0 407.2,195.9" fill="#15803d" stroke="#ffffff" stroke-width="0.7"/>
<polygon points="422.3,183.0 407.6,207.0 407.2,195.9" fill="#78716c" stroke="#ffffff" stroke-width="0.7"/>
<polygon points="407.6,207.0 353.4,222.4 407.2,195.9" fill="#15803d" stroke="#ffffff" stroke-width="0.7"/>
<polygon points="353.4,222.4 353.8,168.2 407.2,195.9" fill="#15803d" stroke="#ffffff" stroke-width="0.7"/>
<polygon points="469.1,260.4 513.1,270.7 471.0,288.5" fill="#78716c" stroke="#ffffff" stroke-width="0.7"/>
<polygon points="513.1,270.7 478.1,312.7 471.0,288.5" fill="#78716c" stroke="#ffffff" stroke-width="0.7"/>
<polygon points="478.1,312.7 460.0,288.1 471.0,288.5" fill="#78716c" stroke="#ffffff" stroke-width="0.7"/>
<polygon points="460.0,288.1 469.1,260.4 471.0,288.5" fill="#78716c" stroke="#ffffff" stroke-width="0.7"/>
<polygon points="355.9,434.8 359.8,398.0 384.7,453.1" fill="#15803d" stroke="#ffffff" stroke-width="0.7"/>
<polygon points="359.8,398.0 403.0,452.4 384.7,453.1" fill="#15803d" stroke="#ffffff" stroke-width="0.7"/>
<polygon points="403.0,452.4 369.1,461.3 384.7,453.1" fill="#15803d" stroke="#ffffff" stroke-width="0.7"/>
<polygon points="369.1,461.3 355.9,434.8 384.7,453.1" fill="#15803d" stroke="#ffffff" stroke-width="0.7"/>
<polygon points="210.7,56.1 272.8,36.9 270.7,56.6" fill="#a21caf" stroke="#ffffff" stroke-width="0.7"/>
<polygon points="272.8,36.9 293.0,60.6 270.7,56.6" fill="#a21caf" stroke="#ffffff" stroke-width="0.7"/>
<polygon points="293.0,60.6 300.4,119.5 270.7,56.6" fill="#78716c" stroke="#ffffff" stroke-width="0.7"/>
<polygon points="300.4,119.5 210.7,56.1 270.7,56.6" fill="#a21caf" stroke="#ffffff" stroke-width="0.7"/>
<polygon points="219.5,417.7 206.9,404.2 233.0,410.1" fill="#1d4ed8" stroke="#ffffff" stroke-width="0.7"/>
<polygon points="206.9,404.2 233.0,375.7 233.0,410.1" fill="#1d4ed8" stroke="#ffffff" stroke-width="0.7"/>
<polygon points="233.0,375.7 248.9,404.1 233.0,410.1" fill="#1d4ed8" stroke="#ffffff" stroke-width="0.7"/>
<polygon points="248.9,404.1 223.3,436.9 233.0,410.1" fill="#1d4ed8" stroke="#ffffff" stroke-width="0.7"/>
<polygon points="223.3,436.9 219.5,417.7 233.0,410.1" fill="#1d4ed8" stroke="#ffffff" stroke-width="0.7"/>
<rect x="30" y="486" width="11" height="11" fill="#1d4ed8" stroke="#ffffff"/>
<text x="45" y="495.5" font-size="11" fill="#111827">океан ×24</text>
<rect x="117" y="486" width="11" height="11" fill="#7dd3fc" stroke="#ffffff"/>
<text x="132" y="495.5" font-size="11" fill="#111827">побережье ×10</text>
<rect x="232" y="486" width="11" height="11" fill="#d9a44a" stroke="#ffffff"/>
<text x="247" y="495.5" font-size="11" fill="#111827">степь ×22</text>
<rect x="319" y="486" width="11" height="11" fill="#15803d" stroke="#ffffff"/>
<text x="334" y="495.5" font-size="11" fill="#111827">лес ×43</text>
<rect x="393" y="486" width="11" height="11" fill="#78716c" stroke="#ffffff"/>
<text x="408" y="495.5" font-size="11" fill="#111827">горы ×70</text>
<rect x="474" y="486" width="11" height="11" fill="#a21caf" stroke="#ffffff"/>
<text x="489" y="495.5" font-size="11" fill="#111827">фредерит ×6</text>
<text x="30" y="513.0" font-size="10" fill="#6b7280">96 вершин · 175 треугольников · оболочка 15 рёбер · 27-дерево: 22 узлов · муха sin(i·Φ)</text>
</svg>